<svg width="142" height="19" viewBox="0 0 142 19" fill="none" xmlns="http://www.w3.org/2000/svg">
<path d="M10 15.27L16.18 19L14.54 11.97L20 7.24L12.81 6.63L10 0L7.19 6.63L0 7.24L5.46 11.97L3.82 19L10 15.27Z" fill="#FFA800"/>
<path d="M42 15.27L48.18 19L46.54 11.97L52 7.24L44.81 6.63L42 0L39.19 6.63L32 7.24L37.46 11.97L35.82 19L42 15.27Z" fill="#FFA800"/>
<path d="M72 15.27L78.18 19L76.54 11.97L82 7.24L74.81 6.63L72 0L69.19 6.63L62 7.24L67.46 11.97L65.82 19L72 15.27Z" fill="#FFA800"/>
<path d="M102 15.27L108.18 19L106.54 11.97L112 7.24L104.81 6.63L102 0L99.19 6.63L92 7.24L97.46 11.97L95.82 19L102 15.27Z" fill="#FFA800"/>
<path d="M132 15.27L138.18 19L136.54 11.97L142 7.24L134.81 6.63L132 0L129.19 6.63L122 7.24L127.46 11.97L125.82 19L132 15.27Z" fill="#F5F5F5"/>
</svg>
