<svg width="50" height="51" viewBox="0 0 50 51" fill="none" xmlns="http://www.w3.org/2000/svg">
<g clip-path="url(#clip0)">
<path d="M25 0.48999C11.1937 0.48999 0 11.6837 0 25.49C0 39.2962 11.1937 50.49 25 50.49C38.8062 50.49 50 39.2962 50 25.49C50 11.6837 38.8062 0.48999 25 0.48999ZM31.25 17.1567H28.4375C27.3167 17.1567 27.0833 17.6171 27.0833 18.7775V21.3233H31.25L30.8146 25.49H27.0833V40.0733H20.8333V25.49H16.6667V21.3233H20.8333V16.515C20.8333 12.8296 22.7729 10.9067 27.1437 10.9067H31.25V17.1567Z" fill="#F5F5F5"/>
</g>
<defs>
<clipPath id="clip0">
<rect width="50" height="50" fill="white" transform="translate(0 0.48999)"/>
</clipPath>
</defs>
</svg>
