<svg width="50" height="51" viewBox="0 0 50 51" fill="none" xmlns="http://www.w3.org/2000/svg">
<g clip-path="url(#clip0)">
<path d="M30.8937 13.6192C29.3563 13.5483 28.8937 13.5358 25 13.5358C21.1062 13.5358 20.6458 13.5504 19.1083 13.6192C15.1521 13.8004 13.3104 15.6733 13.1292 19.5983C13.0604 21.1358 13.0437 21.5962 13.0437 25.49C13.0437 29.3837 13.0604 29.8442 13.1292 31.3837C13.3104 35.2983 15.1437 37.1817 19.1083 37.3629C20.6437 37.4317 21.1062 37.4483 25 37.4483C28.8958 37.4483 29.3563 37.4337 30.8937 37.3629C34.85 37.1837 36.6896 35.3046 36.8729 31.3837C36.9417 29.8463 36.9562 29.3837 36.9562 25.49C36.9562 21.5962 36.9417 21.1358 36.8729 19.5983C36.6896 15.6754 34.8458 13.8004 30.8937 13.6192ZM25 32.9796C20.8646 32.9796 17.5104 29.6275 17.5104 25.49C17.5104 21.3546 20.8646 18.0025 25 18.0025C29.1354 18.0025 32.4896 21.3546 32.4896 25.49C32.4896 29.6254 29.1354 32.9796 25 32.9796ZM32.7854 19.4567C31.8188 19.4567 31.0354 18.6733 31.0354 17.7067C31.0354 16.74 31.8188 15.9567 32.7854 15.9567C33.7521 15.9567 34.5354 16.74 34.5354 17.7067C34.5354 18.6712 33.7521 19.4567 32.7854 19.4567ZM29.8604 25.49C29.8604 28.1754 27.6833 30.3504 25 30.3504C22.3167 30.3504 20.1396 28.1754 20.1396 25.49C20.1396 22.8046 22.3167 20.6296 25 20.6296C27.6833 20.6296 29.8604 22.8046 29.8604 25.49ZM25 0.48999C11.1937 0.48999 0 11.6837 0 25.49C0 39.2962 11.1937 50.49 25 50.49C38.8062 50.49 50 39.2962 50 25.49C50 11.6837 38.8062 0.48999 25 0.48999ZM39.4958 31.5025C39.2562 36.8046 36.3042 39.7421 31.0146 39.9858C29.4583 40.0567 28.9604 40.0733 25 40.0733C21.0396 40.0733 20.5438 40.0567 18.9875 39.9858C13.6875 39.7421 10.7479 36.8004 10.5042 31.5025C10.4333 29.9483 10.4167 29.4504 10.4167 25.49C10.4167 21.5296 10.4333 21.0338 10.5042 19.4775C10.7479 14.1775 13.6896 11.2379 18.9875 10.9963C20.5438 10.9233 21.0396 10.9067 25 10.9067C28.9604 10.9067 29.4583 10.9233 31.0146 10.9963C36.3167 11.24 39.2583 14.1879 39.4958 19.4775C39.5667 21.0338 39.5833 21.5296 39.5833 25.49C39.5833 29.4504 39.5667 29.9483 39.4958 31.5025Z" fill="#F5F5F5"/>
</g>
<defs>
<clipPath id="clip0">
<rect width="50" height="50" fill="white" transform="translate(0 0.48999)"/>
</clipPath>
</defs>
</svg>
