<svg width="60" height="60" viewBox="0 0 60 60" fill="none" xmlns="http://www.w3.org/2000/svg">
<g clip-path="url(#clip0)">
<path d="M11.2341 25.8022L34.1047 48.9674C31.2893 48.9214 28.4786 48.4222 25.8258 47.3512C24.7613 47.1476 20.4795 46.4449 18.8457 48.0999C15.1069 51.8873 11.691 57.0583 9.8204 58.9532C7.95219 60.8456 5.29939 60.0581 2.79249 57.5187C0.28321 54.9768 -0.436803 52.2362 1.37639 50.3995C3.18958 48.5628 8.35167 45.0468 12.0929 41.257C13.8056 39.5196 12.9157 34.7169 12.7794 34.0385C11.758 31.3948 11.282 28.6009 11.2341 25.8022ZM52.8323 6.82661C41.7115 -4.44098 27.0959 -0.498533 17.9965 8.72151C14.6261 12.1309 12.5091 16.3253 11.636 20.7209C22.3648 31.59 28.3801 37.6839 39.1089 48.5531C43.4482 47.6686 47.5912 45.529 50.9569 42.1172C60.0611 32.8947 63.9602 18.0966 52.8323 6.82661Z" fill="url(#paint0_linear)"/>
</g>
<defs>
<linearGradient id="paint0_linear" x1="27" y1="33.5" x2="24" y2="36.5" gradientUnits="userSpaceOnUse">
<stop stop-color="#E62327"/>
<stop offset="0.9999" stop-color="#D00000" stop-opacity="0.0572917"/>
<stop offset="1" stop-color="#265372"/>
</linearGradient>
<clipPath id="clip0">
<rect width="60" height="60" fill="white"/>
</clipPath>
</defs>
</svg>
