<svg width="50" height="51" viewBox="0 0 50 51" fill="none" xmlns="http://www.w3.org/2000/svg">
<g clip-path="url(#clip0)">
<path d="M25 0.48999C11.1937 0.48999 0 11.6837 0 25.49C0 39.2962 11.1937 50.49 25 50.49C38.8062 50.49 50 39.2962 50 25.49C50 11.6837 38.8062 0.48999 25 0.48999ZM37.6375 20.5838C38.0187 29.0004 31.7417 38.3837 20.6292 38.3837C17.25 38.3837 14.1062 37.3921 11.4583 35.6942C14.6333 36.0692 17.8021 35.1858 20.3167 33.2171C17.7 33.1692 15.4896 31.4379 14.725 29.0608C15.6646 29.24 16.5896 29.1879 17.4292 28.9587C14.5521 28.3796 12.5646 25.7879 12.6292 23.015C13.4375 23.4629 14.3583 23.7317 15.3396 23.7629C12.675 21.9817 11.9208 18.4629 13.4875 15.7733C16.4375 19.3942 20.8479 21.7754 25.8208 22.0254C24.9479 18.2837 27.7875 14.6775 31.6521 14.6775C33.3708 14.6775 34.9271 15.4046 36.0187 16.5671C37.3812 16.3004 38.6646 15.8004 39.8187 15.115C39.3708 16.5129 38.4229 17.6838 37.1875 18.4254C38.3979 18.2796 39.5521 17.9588 40.6229 17.4817C39.8229 18.6858 38.8104 19.74 37.6375 20.5838Z" fill="#F5F5F5"/>
</g>
<defs>
<clipPath id="clip0">
<rect width="50" height="50" fill="white" transform="translate(0 0.48999)"/>
</clipPath>
</defs>
</svg>
