<svg width="50" height="51" viewBox="0 0 50 51" fill="none" xmlns="http://www.w3.org/2000/svg">
<g clip-path="url(#clip0)">
<path d="M22.7458 29.5171H24.2167V37.4233H22.7458V36.5504C22.475 36.8712 22.1917 37.1171 21.9021 37.2858C21.1083 37.74 20.0229 37.7296 20.0229 36.1254V29.5171H21.4917V35.5775C21.4917 35.8962 21.5687 36.1108 21.8833 36.1108C22.1708 36.1108 22.5687 35.7442 22.7479 35.5192V29.5171H22.7458ZM24.0833 20.8067C24.5 20.8067 24.7312 20.4733 24.7312 20.0212V16.1587C24.7312 15.6942 24.5271 15.3671 24.0562 15.3671C23.6229 15.3671 23.4125 15.7025 23.4125 16.1587V20.0212C23.4104 20.4588 23.6562 20.8067 24.0833 20.8067ZM20.0396 26.7046H14.9583V28.2608H16.6729V37.4233H18.3292V28.2608H20.0396V26.7046ZM29.875 31.3983V35.7837C29.875 36.7629 29.5083 37.5212 28.5312 37.5212C27.9917 37.5212 27.5437 37.3254 27.1333 36.8129V37.4212H25.65V26.7025H27.1333V30.1525C27.4667 29.7483 27.9146 29.415 28.4417 29.415C29.5187 29.4171 29.875 30.3254 29.875 31.3983ZM28.3604 31.4879C28.3604 31.2212 28.3104 31.0192 28.2042 30.8796C28.025 30.6442 27.6958 30.6192 27.4396 30.7504L27.1354 30.9921V35.9192L27.4833 36.1983C27.7229 36.3192 28.0729 36.3275 28.2354 36.1171C28.3188 36.0046 28.3625 35.8233 28.3625 35.5712V31.4879H28.3604ZM50 25.49C50 39.2962 38.8062 50.49 25 50.49C11.1937 50.49 0 39.2962 0 25.49C0 11.6837 11.1937 0.48999 25 0.48999C38.8062 0.48999 50 11.6837 50 25.49ZM27.6125 20.8004C27.6125 21.6212 27.8625 22.2838 28.6937 22.2838C29.1604 22.2838 29.8062 22.04 30.475 21.2463V22.1629H32.0187V13.8587H30.475V20.1608C30.2875 20.3962 29.8687 20.7837 29.5667 20.7837C29.2354 20.7837 29.1562 20.5588 29.1562 20.2233V13.8587H27.6125V20.8004ZM21.8229 16.0212V20.0921C21.8229 21.5567 22.5875 22.3171 24.0833 22.3171C25.3271 22.3171 26.3021 21.4858 26.3021 20.0921V16.0212C26.3021 14.7212 25.3333 13.79 24.0833 13.79C22.725 13.79 21.8229 14.69 21.8229 16.0212ZM16.0708 10.9067L18.1396 17.5963V22.1608H19.8792V17.5963L21.9021 10.9067H20.1354L19.0208 15.4067L17.8229 10.9067H16.0708ZM37.1521 32.1733C37.125 26.7462 36.7271 24.6692 33.3021 24.4358C30.1396 24.2192 19.8542 24.2213 16.6958 24.4358C13.275 24.6692 12.8729 26.7358 12.8458 32.1733C12.8729 37.6025 13.2708 39.6775 16.6958 39.9129C19.8542 40.1275 30.1396 40.1275 33.3021 39.9129C36.725 39.6775 37.125 37.6129 37.1521 32.1733ZM35.3083 31.6421V33.6546H32.4958V35.1462C32.4958 35.74 32.5458 36.2525 33.1375 36.2525C33.7583 36.2525 33.7938 35.8358 33.7938 35.1462V34.5963H35.3083V35.19C35.3083 36.7129 34.6562 37.6358 33.1062 37.6358C31.6979 37.6358 30.9833 36.6129 30.9833 35.19V31.64C30.9833 30.2671 31.8896 29.315 33.2146 29.315C34.6271 29.3171 35.3083 30.2129 35.3083 31.6421ZM33.7958 31.6275C33.7958 31.0942 33.6833 30.7004 33.1521 30.7004C32.6083 30.7004 32.4979 31.0837 32.4979 31.6275V32.4296H33.7958V31.6275Z" fill="#F5F5F5"/>
</g>
<defs>
<clipPath id="clip0">
<rect width="50" height="50" fill="white" transform="translate(0 0.48999)"/>
</clipPath>
</defs>
</svg>
